<svg width="105" height="105" viewBox="0 0 105 105" fill="none" xmlns="http://www.w3.org/2000/svg">
<circle cx="52.2" cy="52.2" r="52.2" fill="white"/>
<path d="M61.7081 66.8143L67.301 40.155C67.4874 39.0364 67.4874 38.2907 66.9281 37.7314C66.3689 37.1722 65.8096 37.1722 65.0639 37.545L31.5067 50.2222C30.9474 50.595 30.3881 50.7814 30.0153 51.1543C29.8289 51.7136 29.8289 51.9 29.8289 52.2729C30.0153 52.4593 30.3881 52.8322 31.1339 53.0186L39.7096 55.6286L59.6574 42.9514C60.2167 42.5786 60.5896 42.5786 60.9624 42.765C61.1489 42.9514 61.1489 42.9514 60.776 43.3243L44.7431 58.0522L43.9974 67.0007C44.5567 67.0007 45.116 66.8143 45.8617 66.255L49.9631 62.1536L58.5389 68.4922C60.2167 69.4243 61.1489 68.865 61.7081 66.8143Z" fill="#070718"/>
</svg>
