<svg width="105" height="105" viewBox="0 0 105 105" fill="none" xmlns="http://www.w3.org/2000/svg">
<circle cx="52.3995" cy="52.2" r="52.2" fill="white"/>
<path d="M53.3312 37.5828C53.3312 37.5828 40.2294 37.5827 36.6562 38.7738C34.7088 39.6006 33.6998 40.6096 33.0829 42.3471C31.8918 45.9203 31.8918 53.0667 31.8918 53.0667C31.8918 53.0667 31.8918 60.2131 33.0829 63.7863C33.6998 65.8329 35.7177 66.8418 36.6562 67.3596C40.2294 68.5506 53.3312 68.5506 53.3312 68.5506C53.3312 68.5506 66.433 68.5506 70.0062 67.3596C72.0393 66.8418 73.0831 65.2751 73.5794 63.7863C74.7704 60.2131 74.7704 53.0667 74.7704 53.0667C74.7704 53.0667 74.7704 45.9203 73.5794 42.3471C72.9386 40.4249 72.0393 39.6006 70.0062 38.7738C67.6241 37.5827 53.3312 37.5828 53.3312 37.5828ZM49.7579 45.6542L59.9321 52.7168L49.8428 59.7793L49.7579 45.6542Z" fill="#070718"/>
</svg>
