<svg width="106" height="105" viewBox="0 0 106 105" fill="none" xmlns="http://www.w3.org/2000/svg">
<circle cx="53.0003" cy="52.2" r="52.2" fill="white"/>
<path d="M73.5067 40.8285C73.8796 39.8963 73.5067 39.1506 72.2017 39.1506H67.3546C66.0496 39.1506 65.4903 39.7099 65.3039 40.4556C65.3039 40.4556 62.8803 46.4213 59.3382 50.3363C58.2196 51.4549 57.6603 51.8278 57.101 51.8278C56.7282 51.8278 56.3553 51.4549 56.3553 50.5228V40.8285C56.3553 39.7099 55.9825 39.1506 54.8639 39.1506H47.4067C46.661 39.1506 46.1017 39.7099 46.1017 40.2692C46.1017 41.3878 47.7796 41.7606 47.966 44.9299V52.0142C47.966 53.5056 47.5932 53.8785 47.0339 53.8785C45.5425 53.8785 41.6275 47.9128 39.2039 41.0149C38.831 39.7099 38.2717 39.1506 37.1532 39.1506H32.306C30.8146 39.1506 30.6282 39.7099 30.6282 40.4556C30.6282 41.7606 32.306 48.0992 38.2717 56.4885C42.1867 62.2678 47.7796 65.2506 52.9996 65.2506C55.9825 65.2506 56.3553 64.5049 56.3553 63.3863V59.0985C56.3553 57.7935 56.7282 57.4206 57.6603 57.4206C58.406 57.4206 59.5246 57.7935 62.5075 60.5899C65.6767 63.7592 66.236 65.2506 68.1003 65.2506H72.9475C74.2525 65.2506 74.9982 64.5049 74.6253 63.1999C74.2525 61.8949 72.5746 59.8442 70.5239 57.6071C69.4053 56.3021 67.7275 54.8106 67.1682 54.0649C66.4225 53.1328 66.6089 52.7599 67.1682 52.0142C67.1682 52.0142 72.9475 43.8113 73.5067 40.8285Z" fill="#070718"/>
</svg>
