<svg width="105" height="105" viewBox="0 0 105 105" fill="none" xmlns="http://www.w3.org/2000/svg">
<circle cx="52.8006" cy="52.2" r="52.2" fill="white"/>
<g clip-path="url(#clip0_211_15)">
<path d="M51.8675 34.0278C58.0898 34.0278 58.8268 34.0515 61.2841 34.1636C63.5562 34.2673 64.7901 34.6469 65.6113 34.966C66.699 35.3887 67.4754 35.8938 68.2908 36.7092C69.1062 37.5246 69.6113 38.301 70.0339 39.3886C70.3531 40.2099 70.7327 41.4438 70.8364 43.7158C70.9485 46.1731 70.9722 46.9101 70.9722 53.1325C70.9722 59.3548 70.9485 60.0918 70.8364 62.5491C70.7327 64.8211 70.3531 66.055 70.0339 66.8763C69.6113 67.964 69.1062 68.7403 68.2908 69.5558C67.4754 70.3712 66.699 70.8763 65.6113 71.2989C64.7901 71.618 63.5562 71.9977 61.2841 72.1014C58.8272 72.2135 58.0902 72.2372 51.8675 72.2372C45.6448 72.2372 44.9078 72.2135 42.4509 72.1014C40.1788 71.9977 38.9449 71.618 38.1238 71.2989C37.036 70.8763 36.2596 70.3712 35.4442 69.5558C34.6288 68.7403 34.1237 67.964 33.7011 66.8763C33.3819 66.055 33.0023 64.8211 32.8986 62.5492C32.7865 60.0918 32.7628 59.3548 32.7628 53.1325C32.7628 46.9101 32.7865 46.1731 32.8986 43.7159C33.0023 41.4438 33.3819 40.2099 33.7011 39.3886C34.1237 38.301 34.6288 37.5246 35.4442 36.7092C36.2596 35.8938 37.036 35.3887 38.1238 34.966C38.9449 34.6469 40.1788 34.2673 42.4508 34.1636C44.9082 34.0515 45.6451 34.0278 51.8675 34.0278ZM51.8675 29.8289C45.5386 29.8289 44.7451 29.8557 42.2595 29.9691C39.779 30.0823 38.0851 30.4762 36.6027 31.0523C35.0703 31.6478 33.7707 32.4447 32.4752 33.7402C31.1797 35.0357 30.3829 36.3353 29.7873 37.8677C29.2112 39.3501 28.8173 41.044 28.7041 43.5245C28.5907 46.01 28.564 46.8036 28.564 53.1325C28.564 59.4614 28.5907 60.255 28.7041 62.7405C28.8173 65.2209 29.2112 66.9149 29.7873 68.3972C30.3829 69.9296 31.1797 71.2292 32.4752 72.5248C33.7707 73.8203 35.0703 74.6171 36.6027 75.2126C38.0851 75.7887 39.779 76.1826 42.2595 76.2959C44.7451 76.4093 45.5386 76.436 51.8675 76.436C58.1964 76.436 58.99 76.4093 61.4755 76.2959C63.956 76.1826 65.6499 75.7887 67.1323 75.2126C68.6647 74.6171 69.9643 73.8203 71.2598 72.5248C72.5553 71.2292 73.3521 69.9297 73.9477 68.3972C74.5238 66.9149 74.9176 65.2209 75.0309 62.7405C75.1443 60.255 75.1711 59.4614 75.1711 53.1325C75.1711 46.8036 75.1443 46.01 75.0309 43.5245C74.9176 41.044 74.5238 39.3501 73.9477 37.8677C73.3521 36.3353 72.5553 35.0357 71.2598 33.7402C69.9643 32.4447 68.6647 31.6478 67.1323 31.0523C65.6499 30.4762 63.956 30.0823 61.4755 29.9691C58.99 29.8557 58.1964 29.8289 51.8675 29.8289ZM51.8675 41.1657C45.2585 41.1657 39.9008 46.5235 39.9008 53.1325C39.9008 59.7415 45.2585 65.0992 51.8675 65.0992C58.4765 65.0992 63.8342 59.7415 63.8342 53.1325C63.8342 46.5235 58.4765 41.1657 51.8675 41.1657ZM51.8675 60.9004C47.5774 60.9004 44.0996 57.4225 44.0996 53.1325C44.0996 48.8424 47.5774 45.3646 51.8675 45.3646C56.1575 45.3646 59.6354 48.8424 59.6354 53.1325C59.6354 57.4225 56.1575 60.9004 51.8675 60.9004ZM67.1034 40.693C67.1034 42.2374 65.8515 43.4894 64.307 43.4894C62.7626 43.4894 61.5105 42.2374 61.5105 40.693C61.5105 39.1485 62.7626 37.8966 64.307 37.8966C65.8515 37.8966 67.1034 39.1485 67.1034 40.693Z" fill="#070718"/>
</g>
<defs>
<clipPath id="clip0_211_15">
<rect width="46.6071" height="46.6071" fill="white" transform="translate(28.564 29.8289)"/>
</clipPath>
</defs>
</svg>
