<svg width="85" height="83" viewBox="0 0 85 83" fill="none" xmlns="http://www.w3.org/2000/svg">
<path d="M31.6559 71.7413C31.1827 71.5723 30.7752 71.2344 30.5221 70.7539C29.7552 69.349 11.7843 36.0469 14.7122 20.5188C16.0463 13.4916 18.898 8.61817 23.1896 6.04025C26.8668 3.82532 31.4121 3.50945 35.99 5.1448C36.386 5.28626 36.7832 5.43946 37.1684 5.61101C37.4539 5.69602 37.7309 5.78933 38.0062 5.88766C43.067 7.69551 48.4948 12.2413 48.6827 23.3916C52.9017 18.1357 59.3433 13.5325 69.0835 17.0119C74.5645 18.9698 78.24 22.2167 79.7308 26.3966C81.358 30.9418 80.4268 36.4448 76.9825 42.7634C69.4224 56.6254 34.6392 71.088 33.1654 71.6925C32.6633 71.9089 32.1292 71.9104 31.6559 71.7413Z" fill="#FED16E"/>
</svg>
