<svg width="50" height="50" viewBox="0 0 50 50" fill="none" xmlns="http://www.w3.org/2000/svg">
<circle cx="25" cy="25" r="24" stroke="black" stroke-width="2"/>
<path d="M25.1187 12.5596C19.2641 12.5596 14.4916 17.531 14.4916 23.6295C14.4916 28.5405 17.6035 32.7279 21.8543 34.1569C21.7191 33.4726 21.5816 32.6667 21.4656 31.8415C18.49 30.4125 16.4238 27.2524 16.4238 23.6295C16.4238 18.638 20.3268 14.5723 25.1187 14.5723C29.9106 14.5723 33.8136 18.638 33.8136 23.6295C33.8136 27.2524 31.7474 30.4125 28.7718 31.8415C28.6559 32.6667 28.5183 33.4726 28.3831 34.1569C32.6339 32.7279 35.7458 28.5405 35.7458 23.6295C35.7458 17.531 30.9733 12.5596 25.1187 12.5596ZM25.1187 16.585C21.3896 16.585 18.356 19.745 18.356 23.6295C18.356 26.0045 19.496 28.1161 21.2543 29.4043V28.964C21.2543 28.5212 21.3325 27.8351 21.6996 27.1911C20.8301 26.2853 20.2882 25.0183 20.2882 23.6295C20.2882 20.852 22.4523 18.5977 25.1187 18.5977C27.7852 18.5977 29.9492 20.852 29.9492 23.6295C29.9492 25.0183 29.4073 26.2853 28.5378 27.1911C28.9049 27.8351 28.9831 28.5212 28.9831 28.964V29.4043C30.7414 28.1161 31.8814 26.0045 31.8814 23.6295C31.8814 19.745 28.8479 16.585 25.1187 16.585ZM25.1187 20.6104C24.4781 20.6104 23.8638 20.8755 23.4109 21.3473C22.9579 21.8191 22.7035 22.4591 22.7035 23.1263C22.7035 23.7936 22.9579 24.4335 23.4109 24.9053C23.8638 25.3771 24.4781 25.6422 25.1187 25.6422C25.7593 25.6422 26.3736 25.3771 26.8266 24.9053C27.2795 24.4335 27.534 23.7936 27.534 23.1263C27.534 22.4591 27.2795 21.8191 26.8266 21.3473C26.3736 20.8755 25.7593 20.6104 25.1187 20.6104ZM25.1187 26.6486C24.2763 26.6486 22.2204 26.7661 22.2204 28.964C22.2204 31.1619 22.8293 34.4453 23.1752 35.3913C23.521 36.3373 24.4791 36.7121 25.1187 36.7121C25.7583 36.7121 26.7144 36.3412 27.0622 35.3952C27.41 34.4493 28.017 31.1658 28.017 28.9679C28.017 26.768 25.9612 26.6486 25.1187 26.6486Z" fill="black"/>
</svg>
