<svg width="50" height="50" viewBox="0 0 50 50" fill="none" xmlns="http://www.w3.org/2000/svg">
<circle cx="25" cy="25" r="24" stroke="black" stroke-width="2"/>
<path d="M35.5478 18.8695C35.7439 18.3864 35.5478 18 34.8616 18H32.3127C31.6264 18 31.3323 18.2898 31.2343 18.6763C31.2343 18.6763 29.9599 21.7678 28.0972 23.7966C27.509 24.3763 27.2149 24.5695 26.9208 24.5695C26.7247 24.5695 26.5287 24.3763 26.5287 23.8932V18.8695C26.5287 18.2898 26.3326 18 25.7444 18H21.8231C21.4309 18 21.1368 18.2898 21.1368 18.5797C21.1368 19.1593 22.0191 19.3525 22.1172 20.9949V24.6661C22.1172 25.439 21.9211 25.6322 21.627 25.6322C20.8427 25.6322 18.784 22.5407 17.5096 18.9661C17.3135 18.2898 17.0194 18 16.4312 18H13.8823C13.098 18 13 18.2898 13 18.6763C13 19.3525 13.8823 22.6373 17.0194 26.9848C19.0781 29.9797 22.0191 31.5254 24.7641 31.5254C26.3326 31.5254 26.5287 31.139 26.5287 30.5593V28.3373C26.5287 27.661 26.7247 27.4678 27.2149 27.4678C27.6071 27.4678 28.1953 27.661 29.7638 29.1102C31.4304 30.7526 31.7245 31.5254 32.7048 31.5254H35.2537C35.9399 31.5254 36.3321 31.139 36.136 30.4627C35.9399 29.7865 35.0576 28.7237 33.9793 27.5644C33.3911 26.8881 32.5087 26.1153 32.2146 25.7288C31.8225 25.2458 31.9205 25.0526 32.2146 24.6661C32.2146 24.6661 35.2537 20.4153 35.5478 18.8695Z" fill="black"/>
</svg>
