<svg width="23" height="14" viewBox="0 0 23 14" fill="none" xmlns="http://www.w3.org/2000/svg">
<path d="M21.5521 1.23972C21.737 0.777633 21.5521 0.407959 20.9052 0.407959H18.5023C17.8554 0.407959 17.5781 0.685214 17.4857 1.05489C17.4857 1.05489 16.2843 4.01228 14.5283 5.95306C13.9738 6.50758 13.6966 6.69241 13.4193 6.69241C13.2345 6.69241 13.0496 6.50758 13.0496 6.04548V1.23972C13.0496 0.685214 12.8648 0.407959 12.3103 0.407959H8.61356C8.24388 0.407959 7.96663 0.685214 7.96663 0.96247C7.96663 1.51698 8.79839 1.70182 8.89081 3.27293V6.78483C8.89081 7.52418 8.70598 7.70901 8.42872 7.70901C7.68937 7.70901 5.74859 4.75163 4.54715 1.33214C4.36231 0.685214 4.08505 0.407959 3.53054 0.407959H1.12766C0.388317 0.407959 0.295898 0.685214 0.295898 1.05489C0.295898 1.70182 1.12766 4.84404 4.08505 9.00287C6.02584 11.8678 8.79839 13.3465 11.3861 13.3465C12.8648 13.3465 13.0496 12.9769 13.0496 12.4224V10.2967C13.0496 9.6498 13.2345 9.46496 13.6966 9.46496C14.0662 9.46496 14.6208 9.6498 16.0995 11.0361C17.6706 12.6072 17.9478 13.3465 18.872 13.3465H21.2749C21.9218 13.3465 22.2915 12.9769 22.1066 12.3299C21.9218 11.683 21.09 10.6664 20.0734 9.55738C19.5189 8.91045 18.6872 8.17111 18.4099 7.80143C18.0402 7.33934 18.1327 7.1545 18.4099 6.78483C18.4099 6.78483 21.2749 2.71842 21.5521 1.23972Z" fill="#070718"/>
</svg>
