<svg width="50" height="50" viewBox="0 0 50 50" fill="none" xmlns="http://www.w3.org/2000/svg">
<circle cx="25" cy="25" r="24" stroke="black" stroke-width="2"/>
<circle cx="24.8547" cy="24.218" r="9.85473" stroke="black" stroke-width="2"/>
<path fill-rule="evenodd" clip-rule="evenodd" d="M29.1614 14.2253C29.1616 19.5994 29.1683 20.5107 29.2094 20.7827C29.2357 20.9565 29.2572 21.12 29.2572 21.1461C29.2572 21.1721 29.1832 21.0945 29.0928 20.9735C28.8593 20.6611 28.2985 20.1216 27.9445 19.8687C27.5788 19.6075 26.8578 19.2466 26.4438 19.1176C25.0464 18.6821 23.5672 18.8062 22.2876 19.4663C20.8027 20.2322 19.7726 21.6021 19.4362 23.2581C19.3722 23.5735 19.3625 23.714 19.3636 24.3076C19.3651 25.0846 19.4078 25.3572 19.6332 26.0323C20.1614 27.6144 21.4444 28.8936 23.0351 29.4242C25.6772 30.3057 28.5331 29.0858 29.7158 26.5706C29.9555 26.0608 30.0669 25.6675 30.158 25.0088C30.1849 24.8142 30.2006 23.1117 30.2138 18.9687C30.2302 13.8652 30.2378 13.2004 30.2802 13.2073C30.3066 13.2116 31.6518 13.6212 33.2695 14.1175L36.2108 15.0199L36.2189 12.5975C36.2235 11.2652 36.2163 10.1652 36.203 10.1531C36.186 10.1377 30.1347 8.27307 29.2172 8.00051C29.1641 7.98471 29.1612 8.29595 29.1614 14.2253Z" fill="black"/>
</svg>
