<svg width="44" height="32" viewBox="0 0 44 32" fill="none" xmlns="http://www.w3.org/2000/svg">
<path d="M22.3312 0.582764C22.3312 0.582764 9.22937 0.582745 5.65615 1.77382C3.70878 2.60063 2.69985 3.60956 2.0829 5.34707C0.891828 8.92029 0.891846 16.0667 0.891846 16.0667C0.891846 16.0667 0.891828 23.2131 2.0829 26.7863C2.69985 28.8329 4.71771 29.8418 5.65615 30.3596C9.22937 31.5506 22.3312 31.5506 22.3312 31.5506C22.3312 31.5506 35.433 31.5506 39.0062 30.3596C41.0393 29.8418 42.0831 28.2751 42.5794 26.7863C43.7704 23.2131 43.7704 16.0667 43.7704 16.0667C43.7704 16.0667 43.7704 8.92029 42.5794 5.34707C41.9386 3.42487 41.0393 2.60063 39.0062 1.77382C36.6241 0.582745 22.3312 0.582764 22.3312 0.582764ZM18.7579 8.65423L28.9321 15.7168L18.8428 22.7793L18.7579 8.65423Z" fill="#070718"/>
</svg>
