<svg width="50" height="50" viewBox="0 0 50 50" fill="none" xmlns="http://www.w3.org/2000/svg">
<circle cx="25" cy="25" r="24" stroke="black" stroke-width="2"/>
<path d="M24.8129 17C24.8129 17 18.205 17 16.4029 17.6007C15.4207 18.0177 14.9119 18.5266 14.6007 19.4029C14 21.205 14 24.8094 14 24.8094C14 24.8094 14 28.4136 14.6007 30.2158C14.9119 31.248 15.9296 31.7568 16.4029 32.018C18.205 32.6187 24.8129 32.6187 24.8129 32.6187C24.8129 32.6187 31.4209 32.6187 33.223 32.018C34.2484 31.7568 34.7748 30.9667 35.0251 30.2158C35.6259 28.4136 35.6258 24.8094 35.6258 24.8094C35.6258 24.8094 35.6259 21.205 35.0251 19.4029C34.702 18.4334 34.2484 18.0177 33.223 17.6007C32.0216 17 24.8129 17 24.8129 17ZM23.0108 21.0708L28.1421 24.6328L23.0536 28.1948L23.0108 21.0708Z" fill="black"/>
</svg>
